<svg height="24" viewBox="0 0 103 24" width="103" xmlns="http://www.w3.org/2000/svg"><g fill="none" fill-rule="evenodd"><g fill-rule="nonzero"><g fill="#061027"><path d="m39.8058409 20.2087841c2.1732954.3057954 3.4967046-.0923864 4.5218182-1.1164773.6436364-.6426136 1.1328409-1.3953409 1.5647727-2.18625 1.7488637-3.2004545 5.9567045-10.93261362 5.9567045-10.93261362h-3.0313636l-3.1517045 6.33409092-.9835227-6.33409092h-3.221591v.14727273s1.0905682 5.79886359 1.650341 8.77056819c.0835227.4428409.1697727 1.5825-.6313637 2.3195454-.4482955.4121591-1.0956818.7547728-2.2107955.5723864z"/><path d="m37.3905 5.97375-2.93025 6.65025-.0795-.00675-.39675-6.47925h-3.19125l-3.11175 6.48675-.07875-.027-.1335-6.624h-3.05475l.60825 10.6245h3.30525l3.2025-6.933.075.0135.50775 6.91875h3.327l4.812-10.62375z"/><path d="m55.0564091 16.5981136h-3.2072728c.7145455-3.5826136 1.3970455-7.0448863 2.11125-10.62477269h2.486591v1.95477274c.3327272-.80761365.7868182-1.5596591 1.5572727-1.8896591.7557955-.32386364 1.9240909-.30681818 3.1152273.05897727-.469091.90852273-.8267046 1.71681818-1.3346591 2.70034088-.4581818-.09068182-.8703409-.20659088-1.29-.24818183-.9426137-.09375-1.6271591.28227278-1.9489773 1.17613643-.2246591.6242045-.3644318 1.2852272-.5001136 1.9373863-.3402273 1.6339773-.65625 3.2720455-.9893182 4.935zm10.2541022-8.0979886c.4585228-.55738635 1.2842046-.86556817 1.8971592-.67363635.7476136.23420453.9930682 1.06295452.4619318 1.64147722-.180341.19636365-.4319318.3589773-.6825.45306825-.7714773.28977268-1.5698864.28090908-2.4098864.13636358.1421591-.6160227.3671591-1.11238635.7332954-1.5572727zm4.1048864 5.4569318s-.0269318-.0003409-.1073863-.0003409c-1.2279546.4711364-2.5905682.5945454-3.5297727.3282954-1.0377273-.2942045-1.6363637-1.1972727-1.447841-2.2172727 3.0927273.2601137 4.4055682-.3286363 5.1102273-.75 1.9090909-1.1417045 2.3945455-4.1976136-.0964773-5.10238633-2.1886363-.795-5.2373864-.41693182-6.6777272 1.3278409-1.3125 1.59-1.6977273 3.33852273-1.496591 5.28477273.1510228 1.4642046 1.155 3.5631818 4.43625 3.8907954 1.98375.1980682 3.2536364-.3115908 3.3460228-.3497727z"/></g><path d="m12.2851705 11.8771705h7.293409l-3.9347727 9.61125c-.5447727 1.330909-1.8402273 2.2005681-3.2785227 2.2005681h-7.2934091l3.9347727-9.61125c.54477277-1.3309091 1.8402273-2.2005681 3.2785228-2.2005681" fill="#94c5ff"/><path d="m19.5785113 11.8776818-4.4161363 5.6157955c-.6692045.8914772-1.6820455 1.4710227-2.8731818 1.4710227h-5.2830682l2.00590913-4.8893182c.54545452-1.3295454 1.84056817-2.1981818 3.27784087-2.1978409z" fill="#1a32af"/><path d="m9.86740912 5.96996591h7.29340908l-3.9347727 9.61124999c-.5447728 1.3309091-1.8402273 2.2005682-3.2785228 2.2005682h-7.29340907l3.93477274-9.61124997c.54477272-1.33090913 1.84022728-2.20056822 3.27852275-2.20056822" fill="#0092ff"/><path d="m17.16075 5.97047727-4.4161364 5.61579543c-.6692045.8914773-1.6820454 1.4710228-2.87318177 1.4710228h-5.28306819l2.00590909-4.8893182c.54545454-1.32954548 1.84056814-2.19818185 3.27784092-2.19784094z" fill="#1a32af"/><path d="m7.44961364.05696591h7.29340906l-3.9347727 9.61124996c-.5447727 1.33090913-1.8402273 2.20056823-3.2785227 2.20056823h-7.29340912l3.93477273-9.61125001c.54477273-1.33090909 1.84022727-2.20056818 3.27852273-2.20056818" fill="#05f"/></g><path d="m82.532959 11.8395996c0 .957036-.1674788 1.7884486-.5024414 2.4942627s-.8194549 1.2432843-1.4534912 1.6124268c-.6340364.3691424-1.3817096.5537109-2.243042.5537109h-2.3122559l1.5842285-7.49560547h2.0302735c.9228561 0 1.63635.24438232 2.1405029.7331543.5041529.48877197.7562256 1.18944857.7562256 2.10205077zm-4.1271973 3.3479004c.5058619 0 .9467755-.1298815 1.3227539-.3896484.3759785-.259767.6699208-.6417211.881836-1.1458741.2119151-.5041529.3178711-1.0809293.3178711-1.7303466 0-.5263699-.1239002-.9271227-.3717041-1.2022705-.247804-.2751479-.6041237-.4127198-1.0689698-.4127198h-.5895996l-1.0356445 4.8808594zm11.7919922-3.496582c0 .96729-.1691878 1.8328819-.5075684 2.5968017-.3383806.7639199-.8015107 1.3406963-1.3894043 1.7303467-.5878935.3896504-1.2646446.5844727-2.0302734.5844727-.8750044 0-1.5577368-.2520727-2.0482178-.7562256-.4904809-.5041529-.7357177-1.203975-.7357177-2.0994873 0-.9057663.1691877-1.7388878.5075683-2.4993897.3383806-.7605018.8049287-1.34411415 1.3996582-1.75085447.5947296-.40674031 1.2817344-.61010742 2.0610352-.61010742.8715864 0 1.5466285.24609129 2.0251465.73828125.478518.49218994.7177734 1.18090374.7177734 2.06616214zm-2.8710937-1.4816895c-.4135763 0-.7929671.1563705-1.1381836.4691162-.3452166.3127457-.6160879.742551-.8126221 1.2894287-.1965342.5468778-.2947998 1.1398894-.2947998 1.7790528 0 .5024439.1136463.8818346.3409424 1.1381836.227296.2563489.5477274.3845214.9613037.3845214s.7904036-.1486801 1.1304931-.4460449c.3400896-.2973647.605834-.7177707.7972413-1.2612304.1914072-.5434598.2871093-1.1535611.2871093-1.8303223 0-.485354-.1110828-.8604723-.3332519-1.1253662s-.5349101-.3973389-.9382324-.3973389zm7.8339843 0c-.4511741 0-.8570538.1384264-1.2176513.4152832-.3605975.2768569-.6502675.6844456-.8690186 1.2227783-.2187511.5383328-.328125 1.1168182-.328125 1.7354737 0 .5708036.1170643.9946275.3511963 1.2714843.234132.2768569.6075414.4152832 1.1202393.4152832.4990259 0 1.0766568-.1315904 1.7329101-.3947753v1.3330078c-.6801792.2631849-1.3637661.3947754-2.0507812.3947754-.8681684 0-1.5432105-.2554906-2.0251465-.7664795s-.7229004-1.2347366-.7229004-2.1712647c0-.8955123.1777326-1.720089.5332031-2.4737549.3554705-.7536658.8305634-1.32616988 1.425293-1.71752926.5947295-.39135938 1.2783164-.58703613 2.0507812-.58703613.4272483 0 .806639.03845176 1.1381836.11535644.3315447.07690469.6870098.21789449 1.0664063.42297364l-.6049805 1.28173831c-.3623065-.2016612-.6613758-.3349606-.8972168-.3999024-.235841-.0649417-.4699695-.0974121-.7023926-.0974121zm6.6342775 4.0759277c0 .7143591-.252927 1.2791728-.758789 1.6944581-.505862.4152852-1.191158.6229248-2.0559084.6229248-.7553749 0-1.3637672-.1538071-1.8251953-.4614258v-1.4047852c.6596713.3691425 1.2714816.553711 1.8354492.553711.3828144 0 .6818837-.0726311.8972168-.2178955.2153327-.1452644.3229977-.3443591.3229977-.5972901 0-.1469734-.023071-.2760004-.069214-.3870849-.046142-.1110846-.111938-.2144771-.1973872-.3101807-.0854496-.0957036-.2973616-.2700183-.6357422-.5229492-.471682-.3383806-.8032217-.6733382-.9946289-1.0048828-.1914072-.3315447-.2871094-.6887188-.2871094-1.0715332 0-.4409202.105956-.8348372.3178711-1.18176274.2119151-.34692556.5135479-.61694239.9049072-.81005859.3913594-.1931162.8416724-.28967285 1.3509524-.28967285.741703 0 1.420163.16918776 2.0354.50756836l-.558838 1.19458012c-.533205-.252931-1.025388-.3793946-1.476562-.3793946-.283693 0-.516113.0769035-.6972658.2307129-.1811533.1538094-.2717285.3571765-.2717285.6101074 0 .2084972.0563959.3905022.1691894.5460205.1127935.1555184.3657209.361449.7587889.6177979.413576.2734389.7229.5750716.927979.9049072.205079.3298357.307617.7152078.307617 1.1561279z" fill="#061027" opacity=".5"/></g></svg>