<svg height="32" viewBox="0 0 137 32" width="137" xmlns="http://www.w3.org/2000/svg"><g fill="none" fill-rule="evenodd"><g fill-rule="nonzero"><g fill="#061027"><path d="m53.0744545 26.9450455c2.8977273.4077272 4.6622728-.1231819 6.029091-1.4886364.8581818-.8568182 1.5104545-1.8604546 2.0863636-2.915 2.3318182-4.2672727 7.9422727-14.57681819 7.9422727-14.57681819h-4.0418182l-4.2022727 8.44545459-1.3113636-8.44545459h-4.2954546v.19636364s1.4540909 7.73181815 2.2004546 11.69409095c.1113636.5904545.2263636 2.11-.8418182 3.0927272-.5977273.5495455-1.4609091 1.0063637-2.9477273.7631818z"/><path d="m49.854 7.965-3.907 8.867-.106-.009-.529-8.639h-4.255l-4.149 8.649-.105-.036-.178-8.832h-4.073l.811 14.166h4.407l4.27-9.244.1.018.677 9.225h4.436l6.416-14.165z"/><path d="m73.4085455 22.1308182h-4.2763637c.9527273-4.7768182 1.8627273-9.3931818 2.815-14.16636365h3.3154546v2.60636365c.4436363-1.0768182 1.0490909-2.07954547 2.0763636-2.51954547 1.0077273-.43181818 2.5654545-.40909091 4.1536364.07863636-.6254546 1.21136364-1.1022728 2.28909091-1.7795455 3.60045451-.6109091-.1209091-1.1604545-.2754545-1.72-.3309091-1.2568182-.125-2.1695454.3763637-2.5986364 1.5681819-.2995454.8322727-.485909 1.7136363-.6668181 2.5831818-.4536364 2.1786363-.875 4.3627273-1.3190909 6.58zm13.6721363-10.7973182c.6113637-.7431818 1.7122727-1.1540909 2.5295455-.8981818.9968182.3122727 1.3240909 1.4172727.6159091 2.1886363-.2404546.2618182-.5759091.4786364-.91.604091-1.0286364.3863636-2.0931819.3745454-3.2131819.1818181.1895455-.8213636.4895455-1.4831818.9777273-2.0763636zm5.4731818 7.2759091s-.0359091-.0004546-.1431818-.0004546c-1.6372727.6281819-3.4540909.7927273-4.7063636.4377273-1.3836364-.3922727-2.1818182-1.5963636-1.9304546-2.9563636 4.1236364.3468182 5.8740909-.4381818 6.8136364-1 2.5454545-1.5222727 3.1927273-5.5968182-.1286364-6.80318184-2.9181818-1.06-6.9831818-.55590909-8.9036363 1.77045454-1.75 2.12-2.2636364 4.4513636-1.9954546 7.0463636.2013637 1.9522728 1.54 4.7509091 5.915 5.1877273 2.645.2640909 4.3381818-.4154545 4.4613637-.4663636z"/></g><path d="m16.3802273 15.8362273h9.7245454l-5.2463636 12.815c-.7263636 1.7745454-2.4536364 2.9340909-4.3713636 2.9340909h-9.7245455l5.2463636-12.815c.7263637-1.7745455 2.4536364-2.9340909 4.3713637-2.9340909" fill="#94c5ff"/><path d="m26.1046818 15.8369091-5.8881818 7.4877273c-.8922727 1.1886363-2.2427273 1.9613636-3.8309091 1.9613636h-7.0440909l2.6745455-6.5190909c.7272727-1.7727273 2.4540909-2.9309091 4.3704545-2.9304546z" fill="#1a32af"/><path d="m13.1565455 7.95995455h9.7245454l-5.2463636 12.81499995c-.7263637 1.7745455-2.4536364 2.934091-4.3713637 2.934091h-9.72454542l5.24636364-12.815c.72636363-1.7745455 2.45363638-2.93409095 4.37136368-2.93409095" fill="#0092ff"/><path d="m22.881 7.96063636-5.8881818 7.48772724c-.8922727 1.1886364-2.2427273 1.9613637-3.8309091 1.9613637h-7.04409092l2.67454546-6.5190909c.72727272-1.77272731 2.45409086-2.93090913 4.37045456-2.93045458z" fill="#1a32af"/><path d="m9.93281818.07595455h9.72454542l-5.2463636 12.81499995c-.7263636 1.7745455-2.4536364 2.934091-4.3713636 2.934091h-9.72454549l5.24636364-12.81500005c.72636363-1.77454545 2.45363636-2.9340909 4.37136363-2.9340909" fill="#05f"/></g><path d="m110.043945 15.7861328c0 1.2760481-.223305 2.3845982-.669922 3.3256836-.446616.9410854-1.092606 1.6577124-1.937988 2.1499024-.845382.4921899-1.842279.7382812-2.990723.7382812h-3.083007l2.112304-9.9941406h2.707032c1.230475 0 2.1818.3258431 2.854004.977539.672203.651696 1.0083 1.5859315 1.0083 2.8027344zm-5.502929 4.4638672c.674482 0 1.262367-.1731754 1.763672-.5195312.501304-.3463559.893227-.8556282 1.175781-1.5278321.282553-.6722039.423828-1.4412391.423828-2.3071289 0-.7018264-.1652-1.2361635-.495606-1.6030273-.330405-.3668638-.805498-.550293-1.425293-.550293h-.786132l-1.38086 6.5078125zm15.722656-4.6621094c0 1.28972-.225584 2.4438426-.676758 3.4624024-.451174 1.0185597-1.068681 1.787595-1.852539 2.3071289-.783858.5195338-1.686193.7792969-2.707031.7792969-1.166673 0-2.076983-.3360969-2.730957-1.0083008-.653975-.6722039-.980957-1.6053001-.980957-2.7993164 0-1.2076884.225583-2.3185171.676758-3.3325196.451174-1.0140024 1.073238-1.7921522 1.86621-2.3344726.792973-.5423204 1.70898-.8134766 2.748047-.8134766 1.162115 0 2.062172.3281217 2.700196.984375s.957031 1.5745384.957031 2.7548828zm-3.828125-1.9755859c-.551435 0-1.057289.208494-1.517578.6254883-.460289.4169942-.821451.9900679-1.083496 1.7192382-.262046.7291704-.393067 1.5198526-.393067 2.3720704 0 .6699252.151529 1.1757795.45459 1.5175781.303062.3417986.730303.5126953 1.281738.5126953s1.053872-.1982402 1.507325-.5947266c.453452-.3964863.807778-.9570276 1.062988-1.6816406.255209-.724613.382812-1.5380814.382812-2.4404297 0-.6471386-.14811-1.1472964-.444336-1.5004883-.296225-.3531918-.713213-.5297851-1.250976-.5297851zm10.445312 0c-.601565 0-1.142738.1845685-1.623535.5537109-.480796.3691425-.867023.9125941-1.158691 1.6303711s-.4375 1.4890909-.4375 2.3139649c0 .7610715.156085 1.32617.468262 1.6953125.312176.3691424.810055.5537109 1.493652.5537109.665368 0 1.435542-.175454 2.310547-.5263672v1.7773438c-.906906.3509132-1.818355.5263672-2.734375.5263672-1.157558 0-2.057614-.3406542-2.700196-1.0219727-.642581-.6813185-.963867-1.6463154-.963867-2.8950195 0-1.1940164.236977-2.293452.710938-3.2983399.47396-1.0048878 1.107418-1.7682265 1.90039-2.290039.792973-.5218125 1.704422-.7827149 2.734375-.7827149.569665 0 1.075519.051269 1.517579.1538086.442059.1025396.916013.290526 1.421874.5639648l-.80664 1.7089844c-.483075-.2688815-.881834-.4466141-1.196289-.5332031s-.626626-.1298828-.936524-.1298828zm8.845703 5.4345703c0 .9524787-.337236 1.7055636-1.011718 2.2592773-.674483.5537137-1.588211.8305665-2.741211.8305665-1.007167 0-1.818356-.2050761-2.433594-.6152344v-1.8730469c.879562.49219 1.695309.7382813 2.447266.7382813.510419 0 .909178-.0968415 1.196289-.2905274s.430664-.4591454.430664-.7963867c0-.1959645-.030762-.3680006-.092285-.5161133-.061524-.1481127-.149251-.2859694-.263184-.4135742s-.396482-.3600244-.847656-.6972656c-.62891-.4511742-1.070962-.8977843-1.326172-1.3398438s-.382813-.9182917-.382813-1.4287109c0-.5878936.141275-1.1131162.423829-1.5756836.282553-.4625674.68473-.8225899 1.206543-1.0800781.521812-.2574883 1.122229-.3862305 1.801269-.3862305.988937 0 1.893551.2255837 2.713867.6767578l-.745117 1.5927734c-.710941-.3372412-1.367184-.5058593-1.96875-.5058593-.378257 0-.68815.102538-.929687.3076172-.241538.2050791-.362305.4762352-.362305.8134765 0 .2779962.075194.5206695.225586.7280274.150391.2073578.487627.4819318 1.011719.8237304.551435.3645852.963865.7667621 1.237304 1.206543.273439.4397808.410156.9536103.410156 1.5415039z" fill="#061027" opacity=".5"/></g></svg>